<svg id="Capa_1" data-name="Capa 1" xmlns="http://www.w3.org/2000/svg" viewBox="0 0 492 492"><title>1Mesa de trabajo 3</title><path d="M355.32,25.59c-4.08,1.36-8.07,2.95-12,4.61s-7.54,3.38-11.26,5.17-7.36,3.72-11,5.65c-7.29,3.82-14.4,8-21.45,12.23q-5.26,3.2-10.47,6.48t-10.31,6.69C265.16,75.48,251.93,85,239.25,95a407.34,407.34,0,0,0-35.75,31.54,227.09,227.09,0,0,0-15.29,16.89,117.1,117.1,0,0,0-11.87,17.24,58.32,58.32,0,0,0-3.79,8.14,31.07,31.07,0,0,0-1.71,6.84,8.72,8.72,0,0,0,.26,4.1,12.4,12.4,0,0,0,1.48,2.51,42.37,42.37,0,0,0,10,9,135.28,135.28,0,0,0,17.63,9.93c6.59,3.15,13.62,6.21,20.94,9.11S236,216.15,243.69,219l23.48,8.87c7.94,3.1,16,6.28,24.24,9.86a277.72,277.72,0,0,1,25.16,12.4,154.4,154.4,0,0,1,13.12,8.34A96.47,96.47,0,0,1,343.29,270a74,74,0,0,1,6.75,8,62.62,62.62,0,0,1,6.09,10.34,54.5,54.5,0,0,1,4.11,12.78,50.41,50.41,0,0,1,.83,6.93c.05,1.21.11,2.11.06,4,0,.86-.07,1.6-.13,2.37s-.15,1.48-.24,2.18a52.54,52.54,0,0,1-3.62,13.09,75.06,75.06,0,0,1-4.48,9,114.06,114.06,0,0,1-9.46,13.52c-3.2,4-6.46,7.62-9.78,11.07s-6.64,6.72-10,9.84c-6.81,6.24-13.76,12-20.89,17.45a364.74,364.74,0,0,1-44.51,29,349.11,349.11,0,0,1-47.89,22.06,258.59,258.59,0,0,1-51,13.44,179.52,179.52,0,0,1-26.26,2,131.13,131.13,0,0,1-14.72-.87A244.82,244.82,0,0,0,246,492c135.86,0,246-110.14,246-246A246,246,0,0,0,355.32,25.59Z"/><path d="M131,446.76a238.94,238.94,0,0,0,22.41-10A381,381,0,0,0,195.08,412c13.31-9,26.15-18.66,38.51-28.77s24.24-20.65,35.35-31.6c5.52-5.49,10.89-11,15.85-16.68,2.48-2.81,4.88-5.62,7.12-8.43s4.31-5.62,6.15-8.3a64.23,64.23,0,0,0,3.69-6.06c-.17-.17-.35-.35-.56-.54a49.42,49.42,0,0,0-5.67-4.43c-2.38-1.62-5.17-3.28-8.16-4.91-6-3.28-12.8-6.49-19.91-9.55s-14.55-6.14-22.17-9.16L222,274.24c-15.75-6.49-31.91-13.3-48.36-22.45a170.93,170.93,0,0,1-24.88-16.58,105.17,105.17,0,0,1-12.33-11.77,75.6,75.6,0,0,1-11-16.2,63.09,63.09,0,0,1-4-10.14,58.47,58.47,0,0,1-2.1-11.1A64.24,64.24,0,0,1,121,165.17a79.52,79.52,0,0,1,6.28-16.88,109.26,109.26,0,0,1,8.31-13.79,157.88,157.88,0,0,1,19.2-22,238.9,238.9,0,0,1,20.85-17.84,353.84,353.84,0,0,1,44.39-28.68A435.47,435.47,0,0,1,266.92,43.7a371.13,371.13,0,0,1,49-16.1c4.17-1,8.39-1.94,12.61-2.77q3.18-.61,6.36-1.15c2.13-.34,4.26-.63,6.4-.9s4.46-.52,6.69-.69A245,245,0,0,0,246,0C110.14,0,0,110.14,0,246A245.79,245.79,0,0,0,112.69,452.77,191.7,191.7,0,0,0,131,446.76Z"/><path d="M303.32,308.34a4.73,4.73,0,0,0-.31,1.17,9.11,9.11,0,0,0,.34-1C303.39,308.32,303.38,308.23,303.32,308.34Z"/></svg>
